<svg width="884" height="832" viewBox="0 0 884 832" fill="none" xmlns="http://www.w3.org/2000/svg">
<path opacity="0.2" d="M393.4 219.4L177.9 97.5L176.9 209.2L392.4 331.1L393.4 219.4Z" fill="url(#paint0_linear_291_5475)"/>
<path opacity="0.15" d="M232.8 155.6L297.6 192.3L297.5 205.7L232.7 169L232.8 155.6Z" fill="white"/>
<path opacity="0.15" d="M232.6 182.5L370.6 260.6L370.5 274.2L232.5 196.1L232.6 182.5Z" fill="white"/>
<path d="M221.3 159.7C221.2 168.9 215.7 173.3 208.9 169.4C202.1 165.6 196.7 155 196.8 145.8C196.9 136.6 202.4 132.2 209.2 136.1C216 139.9 221.4 150.5 221.3 159.7Z" fill="#F2C94C"/>
<path opacity="0.2" d="M883.4 719.8L668 597.9L667 709.6L882.5 831.5L883.4 719.8Z" fill="url(#paint1_linear_291_5475)"/>
<path opacity="0.15" d="M722.9 656L787.7 692.7L787.6 706.1L722.8 669.4L722.9 656Z" fill="white"/>
<path opacity="0.15" d="M722.7 682.9L860.7 761L860.6 774.6L722.6 696.5L722.7 682.9Z" fill="white"/>
<path d="M711.4 660.1C711.3 669.3 705.8 673.7 699 669.8C692.2 666 686.8 655.4 686.9 646.2C687 637 692.5 632.6 699.3 636.5C706.1 640.3 711.5 650.9 711.4 660.1Z" fill="#F2C94C"/>
<path opacity="0.1" d="M632.1 4.70005C591.5 12.6 500.2 22.8 460.4 0.300049C460.7 159.5 499.7 385.4 627.2 571.7C756.7 530.8 799.2 351.1 802.2 193.8C762.4 171.2 672.2 58.3 632.1 4.70005Z" fill="url(#paint2_linear_291_5475)"/>
<path opacity="0.3" d="M582.5 37.7001C541.9 45.6 450.6 55.8 410.8 33.3C411.1 192.5 450.1 418.4 577.6 604.7C707.1 563.8 749.6 384 752.6 226.8C712.8 204.2 622.6 91.3 582.5 37.7001Z" fill="url(#paint3_linear_291_5475)"/>
<path opacity="0.4" d="M752.7 226.7C712.8 204.1 622.7 91.2999 582.6 37.7L577.7 604.6C707.1 563.8 749.6 384 752.7 226.7Z" fill="url(#paint4_linear_291_5475)"/>
<path opacity="0.1" d="M366 338.5L566.7 449L566.8 817.7L366.1 707.3L366 338.5Z" fill="url(#paint5_linear_291_5475)"/>
<path opacity="0.2" d="M392 554L543.3 637.3L543.7 769.5L392.4 686.2L392 554Z" fill="url(#paint6_linear_291_5475)"/>
<path opacity="0.15" d="M394.7 466L464.7 504.5V518.1L394.7 479.6V466Z" fill="white"/>
<path opacity="0.15" d="M395 493L465 531.5V545.1L395 506.6V493Z" fill="white"/>
<path opacity="0.15" d="M394.9 519L527.7 592.1V605.7L394.9 532.6V519Z" fill="white"/>
<path opacity="0.2" d="M366 338.5L566.7 449L566.9 512.7L366.1 402.3L366 338.5Z" fill="url(#paint7_linear_291_5475)"/>
<path opacity="0.2" d="M416.2 398.4C416.2 408 410.5 412.7 403.5 408.8C396.5 404.9 390.7 394 390.7 384.3C390.7 374.7 396.4 370 403.4 373.9C410.5 377.8 416.2 388.8 416.2 398.4Z" fill="white"/>
<path d="M485.2 552.8L485 498L621.1 572.9L621.3 627.7L485.2 552.8Z" fill="#F2C94C"/>
<path opacity="0.3" d="M329.8 321.4L32.2002 149.7L32.3002 304.8L303.6 461.4L329.9 500.3L329.8 321.4Z" fill="url(#paint8_linear_291_5475)"/>
<path d="M0.5 210.1V168L112.8 232.8V274.9L0.5 210.1Z" fill="#F2994A"/>
<path opacity="0.15" d="M253.3 315L188.1 277.4V291L253.3 328.6V315Z" fill="white"/>
<path opacity="0.15" d="M253.3 342.3L127.6 269.8V283.4L253.3 355.9V342.3Z" fill="white"/>
<path opacity="0.15" d="M253.3 369.5L101 281.6V295.2L253.3 383.1V369.5Z" fill="white"/>
<path d="M269.3 338.5C269.3 351.3 276.9 366 286.2 371.4C295.5 376.8 303.1 370.8 303.1 358C303.1 345.2 295.5 330.5 286.2 325.1C276.9 319.7 269.3 325.7 269.3 338.5Z" fill="#F2994A"/>
<path opacity="0.2" d="M234 481.2C240 484.6 244.8 493 244.8 499.9V530.4L265 542C271 545.4 275.8 553.8 275.8 560.7C275.8 567.6 271 570.4 265 567L244.8 555.4V585.9C244.8 592.8 240 595.6 234 592.2C228 588.8 223.2 580.4 223.2 573.5V543L203 531.3C197 527.9 192.2 519.5 192.2 512.6C192.2 505.7 197 502.9 203 506.3L223.2 517.9V487.4C223.2 480.6 228 477.8 234 481.2Z" fill="url(#paint9_linear_291_5475)"/>
<defs>
<linearGradient id="paint0_linear_291_5475" x1="309.192" y1="171.765" x2="261.083" y2="256.785" gradientUnits="userSpaceOnUse">
<stop stop-color="white"/>
<stop offset="1" stop-color="white" stop-opacity="0"/>
</linearGradient>
<linearGradient id="paint1_linear_291_5475" x1="799.271" y1="672.173" x2="751.162" y2="757.193" gradientUnits="userSpaceOnUse">
<stop stop-color="white"/>
<stop offset="1" stop-color="white" stop-opacity="0"/>
</linearGradient>
<linearGradient id="paint2_linear_291_5475" x1="370.355" y1="56.1186" x2="648.916" y2="305.429" gradientUnits="userSpaceOnUse">
<stop stop-color="white"/>
<stop offset="1" stop-color="white" stop-opacity="0"/>
</linearGradient>
<linearGradient id="paint3_linear_291_5475" x1="320.764" y1="89.0916" x2="599.325" y2="338.403" gradientUnits="userSpaceOnUse">
<stop stop-color="white"/>
<stop offset="1" stop-color="white" stop-opacity="0"/>
</linearGradient>
<linearGradient id="paint4_linear_291_5475" x1="767.145" y1="285.359" x2="543.685" y2="328.127" gradientUnits="userSpaceOnUse">
<stop stop-color="white"/>
<stop offset="1" stop-color="white" stop-opacity="0"/>
</linearGradient>
<linearGradient id="paint5_linear_291_5475" x1="367.193" y1="481.885" x2="577.659" y2="686.133" gradientUnits="userSpaceOnUse">
<stop stop-color="white"/>
<stop offset="1" stop-color="white" stop-opacity="0"/>
</linearGradient>
<linearGradient id="paint6_linear_291_5475" x1="418.68" y1="556.913" x2="508.83" y2="749.152" gradientUnits="userSpaceOnUse">
<stop stop-color="white"/>
<stop offset="1" stop-color="white" stop-opacity="0"/>
</linearGradient>
<linearGradient id="paint7_linear_291_5475" x1="434.08" y1="338.316" x2="496.877" y2="507.934" gradientUnits="userSpaceOnUse">
<stop stop-color="white"/>
<stop offset="1" stop-color="white" stop-opacity="0"/>
</linearGradient>
<linearGradient id="paint8_linear_291_5475" x1="264.864" y1="259.294" x2="111.213" y2="379.598" gradientUnits="userSpaceOnUse">
<stop stop-color="white"/>
<stop offset="1" stop-color="white" stop-opacity="0"/>
</linearGradient>
<linearGradient id="paint9_linear_291_5475" x1="254.892" y1="520.225" x2="202.534" y2="561.545" gradientUnits="userSpaceOnUse">
<stop stop-color="white"/>
<stop offset="1" stop-color="white" stop-opacity="0"/>
</linearGradient>
</defs>
</svg>
