<svg width="674" height="626" viewBox="0 0 674 626" fill="none" xmlns="http://www.w3.org/2000/svg">
<path fill-rule="evenodd" clip-rule="evenodd" d="M319.231 327.795C302.567 329.717 289.781 329.486 280.87 327.103C271.96 324.72 264.933 319.652 259.789 311.897C254.182 300.038 251.072 293.241 250.458 291.507C247.452 283.012 247.118 274.662 247.694 269.044C248.445 261.706 252.477 252.145 259.789 240.36C260.831 232.166 262.559 224.909 264.973 218.588C267.388 212.266 272.226 203.166 279.488 191.286L280.525 152.234C283.589 143.295 286.469 136.959 289.165 133.226C291.86 129.494 294.971 127.535 298.496 127.351C301.47 127.069 304.234 127.76 306.79 129.425C309.345 131.09 314.183 135.352 321.304 142.212C327.185 131.949 333.867 124.115 341.349 118.712C348.831 113.308 358.737 109.161 371.069 106.27L372.797 102.814L373.006 82.4865L367.268 33.0047H359.665L371.415 15.7251C372.464 11.9177 373.5 9.15294 374.525 7.43091C375.55 5.70888 377.465 3.75062 380.269 1.55612C380.32 0.919801 382.626 0.573944 387.186 0.518547C391.746 0.463149 398.93 0.69372 408.739 1.21026C412.926 2.17196 415.806 3.43913 417.378 5.01177C418.951 6.58441 420.333 9.92513 421.526 15.0339L438.373 33.029L427.746 33.6959L426.709 66.5271C425.231 72.1577 423.849 75.9592 422.562 77.9317C421.276 79.9041 419.202 81.4017 416.342 82.4243L399.408 83.4611L397.334 103.505L398.717 106.27C407.366 108.742 413.241 110.701 416.342 112.145C423.789 115.614 430.526 120.637 435.695 129.425C439.313 135.577 443.059 144.075 448.136 152.925C452.606 160.717 460.785 174.426 472.673 194.051L484.423 204.418L490.298 216.168L504.467 226.882L511.033 205.455C497.671 185.18 490.989 172.278 490.989 166.749C490.989 164.438 492.385 162.259 493.754 160.874C495.66 158.945 498.277 157.759 502.739 158.109C505.714 158.342 508.594 160.185 511.379 163.638L551.122 270.426C547.167 283.39 543.711 293.066 540.754 299.456C537.798 305.846 533.42 312.182 527.622 318.464C519.267 323.15 512.24 325.915 506.541 326.758C500.842 327.601 491.511 326.794 478.548 324.339C474.008 322.261 471.013 320.302 469.563 318.464C464.185 311.646 461.936 302.999 459.195 298.419C455.346 291.987 453.042 285.996 452.283 280.448L434.312 222.043L356.555 219.624L349.297 278.721C345.33 294.782 341.068 306.532 336.51 313.971C331.953 321.41 326.193 326.018 319.231 327.795Z" fill="white"/>
<path fill-rule="evenodd" clip-rule="evenodd" d="M324.586 340.526C323.179 340.272 322.141 340.147 321.473 340.149C318.911 340.16 316.819 340.028 315.594 338.074C313.89 335.357 314.351 332.129 316.977 328.39L324.24 325.969H327.699L352.946 327.007L360.901 325.969L388.915 324.932C391.913 326.315 392.95 328.967 392.028 332.886C391.106 336.806 388.569 339.227 384.419 340.149L376.119 340.526L320.09 597.435H284.121C290.278 557.075 295.236 526.721 298.993 506.374C302.75 486.027 311.281 430.744 324.586 340.526ZM412.434 340.526C412.379 339.71 410.189 339.584 405.862 340.149C402.173 338.305 400.674 335.423 401.366 331.503C402.058 327.583 403.787 325.508 406.554 325.278L411.742 325.969H427.651L443.561 327.007L461.199 325.278C466.733 325.739 469.5 328.275 469.5 332.886C469.5 335.507 468.616 336.869 467.425 338.074C466.821 338.685 465.668 339.376 463.966 340.149L458.432 340.526L472.613 597.781H435.26C430.228 551.519 427 519.088 425.576 500.488C423.88 478.336 414.285 368.224 412.434 340.526Z" fill="white"/>
<path fill-rule="evenodd" clip-rule="evenodd" d="M324.586 340.18H376.119L320.09 597.089H284.121C290.278 556.729 295.236 526.375 298.993 506.028C302.75 485.681 311.281 430.398 324.586 340.18ZM412.434 340.18H458.432L472.613 597.435H435.26C430.228 551.173 427 518.742 425.576 500.142C423.88 477.989 414.285 367.877 412.434 340.18Z" stroke="black" stroke-width="1.5"/>
<path fill-rule="evenodd" clip-rule="evenodd" d="M356.751 110.969L317.757 111.153C298.303 111.244 282.308 126.515 281.316 145.944L280.662 158.75C281.272 152.165 282.079 147.549 283.083 144.901C284.678 140.697 286.521 138.28 288.617 135.552C291.787 131.429 295.376 127.949 298.301 127.243C304.988 125.627 312.481 130.82 320.782 142.823C322.172 140.135 323.325 138.057 324.24 136.591C326.068 133.664 328.013 130.504 331.503 127.243C338.42 120.78 346.836 115.355 356.751 110.969Z" fill="black"/>
<path fill-rule="evenodd" clip-rule="evenodd" d="M324.932 325.291C328.489 326.589 335.176 327.166 344.992 327.023C350.336 326.944 359.958 325.349 368.164 324.945C372.74 324.72 379.657 324.72 388.915 324.945L396.87 303.825H404.479L406.9 324.945C414.994 325.451 420.758 325.798 424.193 325.984C431.579 326.384 437.724 326.676 442.523 326.676C450.67 326.676 456.665 326.099 460.508 324.945L442.869 226.267L360.901 229.383C359.83 244.41 355.91 260.914 349.142 278.895C347.699 282.728 347.469 287.572 346.029 292.399C343.835 299.754 341.419 306.868 338.766 311.788C336.25 316.456 331.638 320.957 324.932 325.291Z" fill="black"/>
<path d="M459.961 325.175L452.042 278.983C451.993 278.701 452.183 278.432 452.465 278.384C452.747 278.335 453.016 278.525 453.064 278.808L460.945 324.772H462.064C466.457 324.772 470.019 328.337 470.019 332.736C470.019 337.134 466.457 340.699 462.064 340.699H407.491C403.596 340.699 400.439 337.538 400.439 333.639C400.439 333.313 400.461 332.987 400.506 332.664L400.921 329.691C401.294 327.015 403.365 324.922 405.988 324.491L404.009 304.344H397.229L389.626 324.53C391.747 325.021 393.249 327.002 393.077 329.242C393.062 329.435 393.035 329.627 392.995 329.816L392.363 332.842C391.406 337.42 387.374 340.699 382.702 340.699H319.431C316.516 340.699 314.152 338.333 314.152 335.414C314.152 334.862 314.239 334.313 314.409 333.788C314.87 332.36 315.446 330.516 316.135 328.256C316.219 327.982 316.509 327.827 316.783 327.911C317.057 327.995 317.211 328.285 317.128 328.559C316.436 330.824 315.859 332.673 315.396 334.107C315.259 334.529 315.19 334.97 315.19 335.414C315.19 337.759 317.089 339.66 319.431 339.66H382.702C386.883 339.66 390.491 336.726 391.347 332.629L391.98 329.604C392.01 329.458 392.031 329.311 392.043 329.162C392.188 327.27 390.778 325.617 388.89 325.464C384.598 325.38 381.562 325.337 379.783 325.335C374.968 325.33 361.39 326.118 358.549 326.499C352.1 327.363 348.685 327.487 343.107 327.299C342.926 327.293 342.926 327.293 342.744 327.287C340.751 327.219 339.798 327.196 338.527 327.196C333.913 327.196 330.467 327.08 328.18 326.847C325.496 326.573 324.28 326.191 324.418 325.218L325.445 325.365C325.456 325.289 325.435 325.233 325.422 325.208C325.494 325.264 325.644 325.333 325.863 325.402C326.373 325.562 327.184 325.701 328.285 325.813C330.529 326.042 333.946 326.157 338.527 326.157C339.813 326.157 340.775 326.181 342.779 326.249C342.961 326.255 342.961 326.255 343.142 326.261C348.666 326.447 352.025 326.325 358.411 325.469C361.302 325.082 374.925 324.291 379.785 324.296C381.522 324.298 384.446 324.339 388.559 324.419L396.385 303.641C396.461 303.439 396.654 303.305 396.87 303.305H404.479H408.975C409.262 303.305 409.494 303.538 409.494 303.825C409.494 304.111 409.262 304.344 408.975 304.344H405.051L407.036 324.548C409.327 324.926 413.904 325.118 420.734 325.118C423.301 325.118 435.85 325.82 439.459 326.159C443.572 326.546 450.412 326.219 459.961 325.175ZM460.527 325.811L460.565 326.154C450.694 327.248 443.633 327.595 439.362 327.193C435.782 326.857 423.266 326.157 420.734 326.157C413.431 326.157 408.683 325.94 406.453 325.498L406.458 325.475C404.139 325.716 402.272 327.511 401.948 329.834L401.534 332.807C401.496 333.083 401.476 333.361 401.476 333.639C401.476 336.965 404.169 339.66 407.491 339.66H462.064C465.884 339.66 468.981 336.56 468.981 332.736C468.981 328.911 465.884 325.811 462.064 325.811H460.527Z" fill="black"/>
<path d="M400.13 83.4436L398.117 104.724C414.511 110.302 424.993 115.146 429.604 119.298C435.584 124.682 450.911 155.8 458.766 176.222C461.139 182.39 464.816 186.296 473.739 193.527L474.489 194.135C483.45 201.397 487.113 205.317 489.356 211.549C492.818 221.17 499.746 223.482 510.439 218.525C510.699 218.404 511.007 218.518 511.127 218.778C511.248 219.038 511.135 219.347 510.875 219.467C499.659 224.667 492.061 222.131 488.38 211.901C486.223 205.908 482.653 202.087 473.837 194.942L473.086 194.334C464.025 186.992 460.257 182.989 457.798 176.595C450.012 156.352 434.716 125.297 428.911 120.07C424.402 116.011 413.882 111.165 397.395 105.575C397.167 105.498 397.023 105.274 397.045 105.035L399.088 83.4436H393.066C392.779 83.4436 392.547 83.2111 392.547 82.9243C392.547 82.6374 392.779 82.4049 393.066 82.4049H399.651C399.655 82.4048 399.659 82.4048 399.664 82.4049H411.184C418.323 82.4049 422.464 79.4991 424.626 73.6269C426.363 68.9082 426.786 63.454 426.786 51.7945V43.8533C426.786 43.7435 426.787 43.6542 426.787 43.4522C426.792 39.5916 426.614 37.3672 425.787 33.9756C425.768 33.9554 425.744 33.9306 425.716 33.9017C425.635 33.8208 425.522 33.7149 425.378 33.5852H375.916C375.63 33.5852 375.397 33.3527 375.397 33.0659C375.397 32.779 375.63 32.5465 375.916 32.5465H425.576C425.703 32.5465 425.825 32.5929 425.92 32.677C426.532 33.2198 426.714 33.4022 426.772 33.6343C427.642 37.1765 427.83 39.4808 427.825 43.4536C427.825 43.6554 427.824 43.7441 427.824 43.8533V51.7945C427.824 63.5854 427.396 69.108 425.6 73.9862C423.288 80.2656 418.759 83.4436 411.184 83.4436H400.13ZM551.662 269.747L552.657 270.04C543.967 299.586 534.738 316.809 524.858 321.739C509.304 329.501 490.286 330.098 474.805 322.496C472.759 321.492 471.153 320.089 469.523 317.933C468.361 316.396 467.214 314.546 465.384 311.335C464.905 310.495 463.081 307.261 462.812 306.787C461.666 304.765 460.676 303.043 459.62 301.25C458.174 298.793 456.121 293.368 453.442 284.939L454.431 284.624C457.086 292.977 459.121 298.356 460.514 300.722C461.573 302.522 462.566 304.248 463.714 306.274C463.984 306.751 465.808 309.983 466.285 310.821C468.094 313.994 469.223 315.814 470.35 317.306C471.888 319.339 473.372 320.636 475.262 321.564C490.442 329.017 509.122 328.431 524.395 320.81C533.925 316.054 543.051 299.023 551.662 269.747Z" fill="black"/>
<path fill-rule="evenodd" clip-rule="evenodd" d="M409.321 109.584L415.546 112.008C419.927 125.396 423.27 136.822 425.576 146.286C427.882 155.75 429.38 169.83 430.072 188.527L421.426 186.103C422.118 171.1 420.849 157.827 417.621 146.286C416.215 141.259 413.449 129.025 409.321 109.584ZM356.405 110.969L362.284 108.546C363.668 118.779 364.36 126.858 364.36 132.782C364.36 138.707 364.36 144.708 364.36 150.787L355.367 163.598C356.751 159.443 357.442 150.094 357.442 135.552C357.442 121.01 357.097 112.816 356.405 110.969Z" fill="black"/>
<path d="M409.159 109.693L408.96 108.752L416.309 111.613L416.385 111.847C420.77 125.246 424.117 136.685 426.426 146.163C428.742 155.667 430.244 169.779 430.936 188.508L430.963 189.219L421.234 186.492L421.253 186.079C421.943 171.128 420.68 157.911 417.468 146.426C416.058 141.384 413.29 129.145 409.159 109.693ZM418.467 146.146C421.681 157.638 422.961 170.827 422.308 185.714L429.873 187.835C429.171 169.524 427.684 155.712 425.418 146.409C423.129 137.014 419.815 125.679 415.475 112.403L410.374 110.417C414.389 129.3 417.088 141.215 418.467 146.146ZM356.265 111.152L356.088 110.681L363.054 107.809L363.144 108.476C364.531 118.731 365.224 126.831 365.224 132.783V150.951L354.101 166.798L355.221 163.434C356.58 159.351 357.269 150.036 357.269 135.553C357.269 121.125 356.923 112.908 356.265 111.152ZM358.307 135.553C358.307 147.559 357.838 156.037 356.888 161.021L364.187 150.623V132.783C364.187 127.014 363.527 119.179 362.206 109.283L357.38 111.272C358.008 113.872 358.307 121.897 358.307 135.553Z" fill="black"/>
<path d="M399.485 111.117L400.48 110.822L447.529 269.795C450.217 283.847 459.908 290.841 476.763 290.841C493.626 290.841 507.489 279.572 518.369 256.937L519.304 257.387C508.267 280.349 494.081 291.879 476.763 291.879C459.436 291.879 449.298 284.562 446.522 270.041L399.485 111.117ZM425.063 239.691L426.089 239.85C420.75 274.473 410.715 291.879 395.832 291.879C383.792 291.879 375.781 254.378 372.488 182.665C371.867 169.143 371.521 146.054 371.45 113.394L372.487 113.392C372.558 146.038 372.904 169.114 373.524 182.617C376.774 253.396 384.773 290.841 395.832 290.841C410.002 290.841 419.796 273.854 425.063 239.691Z" fill="black"/>
<path fill-rule="evenodd" clip-rule="evenodd" d="M476.747 222.66L512.987 218.851L515.13 239.245L478.891 243.054L476.747 222.66ZM443.135 186.1L439.729 153.696C441.096 150.192 444.696 148.134 450.53 147.521C456.364 146.907 460.314 148.172 462.379 151.316L465.785 183.719L443.135 186.1ZM538.263 176.101L515.614 178.482L512.208 146.078C513.575 142.575 517.175 140.516 523.009 139.903C528.843 139.29 532.792 140.555 534.857 143.698L538.263 176.101Z" fill="black"/>
<path fill-rule="evenodd" clip-rule="evenodd" d="M440.289 222.08L435.026 172.002C437.232 166.577 443.002 163.374 452.336 162.393C461.67 161.412 467.98 163.345 471.265 168.193L476.529 218.271L440.289 222.08ZM549.007 210.654L512.768 214.463L507.505 164.384C509.71 158.959 515.48 155.756 524.814 154.775C534.149 153.794 540.459 155.727 543.744 160.575L549.007 210.654Z" fill="white"/>
<path fill-rule="evenodd" clip-rule="evenodd" d="M440.062 222.22L434.798 172.142C437.004 166.717 442.774 163.514 452.108 162.533C461.442 161.552 467.752 163.485 471.038 168.333L476.301 218.411L440.062 222.22ZM548.78 210.793L512.54 214.602L507.277 164.524C509.482 159.099 515.252 155.896 524.587 154.915C533.921 153.934 540.231 155.867 543.516 160.715L548.78 210.793Z" fill="white" stroke="black" stroke-width="1.5" stroke-linecap="round" stroke-linejoin="round"/>
<path fill-rule="evenodd" clip-rule="evenodd" d="M439.172 277.584L433.083 219.651C436.234 213.312 444.226 209.468 457.061 208.119C469.896 206.77 478.513 208.868 482.912 214.413L489.001 272.347L439.172 277.584ZM561.48 264.729L511.651 269.967L505.562 212.033C508.712 205.694 516.705 201.85 529.539 200.501C542.374 199.152 550.991 201.25 555.391 206.796L561.48 264.729Z" fill="white"/>
<path d="M439.067 278.118C438.782 278.148 438.527 277.941 438.497 277.656L432.407 219.722C432.397 219.623 432.415 219.524 432.459 219.436C435.706 212.904 443.854 208.985 456.847 207.619C469.84 206.254 478.625 208.393 483.159 214.107C483.22 214.185 483.258 214.278 483.268 214.376L489.357 272.31C489.387 272.595 489.181 272.851 488.896 272.881L439.067 278.118ZM488.271 271.902L482.252 214.636C477.958 209.347 469.54 207.33 456.955 208.652C444.371 209.975 436.556 213.699 433.455 219.765L439.474 277.031L488.271 271.902ZM561.836 264.692C561.866 264.977 561.659 265.233 561.374 265.263L511.545 270.5C511.26 270.53 511.005 270.323 510.975 270.038L504.886 212.104C504.876 212.006 504.894 211.907 504.937 211.818C508.184 205.286 516.333 201.367 529.325 200.002C542.318 198.636 551.103 200.775 555.637 206.489C555.699 206.567 555.737 206.66 555.747 206.758L561.836 264.692ZM560.75 264.284L554.731 207.019C550.436 201.73 542.018 199.712 529.434 201.035C516.85 202.357 509.035 206.081 505.934 212.147L511.953 269.413L560.75 264.284Z" fill="black"/>
<path fill-rule="evenodd" clip-rule="evenodd" d="M464.82 283.48C451.06 284.926 439.506 282.294 439.013 277.601C438.519 272.908 449.274 267.931 463.034 266.485C476.794 265.039 488.348 267.671 488.842 272.364C489.335 277.057 478.58 282.034 464.82 283.48ZM537.299 275.862C523.539 277.309 511.984 274.676 511.491 269.983C510.998 265.29 521.753 260.314 535.512 258.867C549.272 257.421 560.827 260.053 561.32 264.746C561.813 269.439 551.059 274.416 537.299 275.862Z" fill="black"/>
<path d="M426.764 231.872C431.114 231.415 434.27 227.516 433.812 223.163C433.355 218.811 429.457 215.653 425.107 216.11C420.757 216.567 417.601 220.466 418.058 224.819C418.516 229.172 422.413 232.329 426.764 231.872ZM426.655 230.839C422.875 231.237 419.488 228.493 419.09 224.711C418.693 220.929 421.435 217.541 425.216 217.143C428.996 216.746 432.383 219.49 432.781 223.272C433.178 227.054 430.436 230.442 426.655 230.839Z" fill="black"/>
<path d="M260.699 240.442L267.688 237.897C267.958 237.799 268.255 237.938 268.353 238.208C268.451 238.477 268.312 238.775 268.043 238.873L261.829 241.136L268.13 244.863C268.376 245.009 268.458 245.327 268.312 245.574C268.166 245.821 267.848 245.903 267.602 245.757L260.566 241.595L260.434 241.643C260.373 241.666 260.31 241.676 260.249 241.675C247.546 258.609 244.608 275.314 251.398 291.855C258.018 307.98 260.993 313.735 266.008 318.702C271.789 324.429 279.751 327.405 293.516 328.93C319.475 331.806 334.637 323.194 341.389 303.998C345.609 292.005 348.022 283.606 348.627 278.83C348.663 278.545 348.923 278.344 349.207 278.38C349.491 278.416 349.693 278.676 349.656 278.961C349.039 283.832 346.611 292.283 342.368 304.343C335.449 324.014 319.823 332.89 293.402 329.962C279.425 328.414 271.253 325.359 265.278 319.44C260.126 314.337 257.115 308.513 250.439 292.25C243.464 275.259 246.54 258.078 259.631 240.77C261.04 223.196 267.412 206.747 278.741 191.433C290.036 176.166 301.676 164.688 313.665 157.003C321.768 135.51 333.533 121.116 348.966 113.853C356.655 110.234 362.426 107.829 366.289 106.635C368.876 105.835 370.717 105.54 371.747 105.865L373.525 73.2012C373.541 72.9148 373.786 72.6953 374.072 72.7094C374.358 72.7265 374.577 72.9713 374.561 73.2577L372.712 107.237C372.675 107.91 371.675 107.883 371.675 107.209C371.675 106.573 370.074 106.551 366.595 107.627C362.789 108.804 357.056 111.193 349.408 114.793C334.204 121.948 322.591 136.183 314.575 157.53C314.536 157.635 314.463 157.725 314.369 157.785C302.444 165.397 290.845 176.818 279.575 192.051C268.447 207.093 262.158 223.22 260.699 240.442Z" fill="black"/>
<path fill-rule="evenodd" clip-rule="evenodd" d="M372.314 103.006L367.455 115.31C367.174 116.021 367.523 116.825 368.234 117.105C368.513 117.216 368.822 117.232 369.112 117.152L389.865 111.394L403.6 116.286C404.319 116.543 405.111 116.167 405.367 115.447C405.52 115.017 405.451 114.538 405.182 114.169L397.562 103.699C396.148 104.93 393.12 105.545 388.478 105.545C383.835 105.545 378.447 104.699 372.314 103.006Z" fill="white"/>
<path d="M389.542 111.772L369.597 117.306C369.198 117.416 368.774 117.394 368.389 117.242C367.412 116.855 366.933 115.749 367.32 114.77L372.178 102.469C372.275 102.222 372.542 102.089 372.798 102.159C378.889 103.84 384.232 104.68 388.823 104.68C393.349 104.68 396.277 104.084 397.567 102.96C397.796 102.761 398.148 102.8 398.327 103.046L405.945 113.513C406.315 114.021 406.41 114.68 406.199 115.273C405.847 116.264 404.759 116.781 403.77 116.429L390.582 111.731C390.605 111.928 390.632 112.159 390.663 112.425C390.793 113.551 390.987 115.298 391.247 117.665C391.766 122.397 392.544 129.611 393.581 139.306C393.612 139.591 393.406 139.847 393.121 139.878C392.836 139.908 392.58 139.702 392.55 139.416C391.512 129.722 390.734 122.509 390.215 117.778C389.956 115.413 389.762 113.668 389.632 112.544C389.597 112.242 389.567 111.984 389.542 111.772ZM389.529 105.713C389.643 106.159 389.751 106.654 389.856 107.196C390.025 108.078 390.158 108.927 390.315 110.047L390.381 110.521C390.383 110.534 390.385 110.547 390.387 110.559L404.117 115.45C404.567 115.61 405.062 115.375 405.222 114.925C405.318 114.655 405.274 114.356 405.106 114.125L397.799 104.085C396.232 105.13 393.484 105.658 389.529 105.713ZM389.365 110.743C389.361 110.719 389.358 110.694 389.354 110.666L389.287 110.191C389.133 109.087 389.002 108.253 388.837 107.392C388.716 106.762 388.589 106.2 388.457 105.717C383.963 105.674 378.802 104.863 372.972 103.283L368.284 115.152C368.109 115.597 368.327 116.1 368.771 116.276C368.946 116.345 369.138 116.355 369.319 116.305L389.365 110.743Z" fill="black"/>
<path fill-rule="evenodd" clip-rule="evenodd" d="M318.706 221.869C347.407 176.071 363.893 150.796 368.164 146.042C371.497 142.332 377.207 142.027 380.917 145.361C383.693 147.855 384.649 151.801 383.321 155.29L373.006 182.397" fill="white"/>
<path d="M319.025 222.388C347.693 176.643 364.189 151.352 368.429 146.633C371.573 143.135 376.954 142.85 380.448 145.997C383.063 148.352 383.962 152.074 382.71 155.364L372.4 182.456L373.37 182.826L383.679 155.734C385.084 152.043 384.076 147.866 381.142 145.225C377.222 141.694 371.184 142.014 367.658 145.939C363.355 150.727 346.88 175.986 318.146 221.836L319.025 222.388Z" fill="black"/>
<path fill-rule="evenodd" clip-rule="evenodd" d="M382.816 53.5139C382.008 53.2756 381.154 53.1477 380.269 53.1477C375.303 53.1477 371.277 57.1781 371.277 62.1499C371.277 66.3742 374.183 69.9189 378.103 70.8893L377.697 79.2656C377.588 81.4994 375.729 83.2456 373.493 83.2142L362.82 83.0644C362.135 83.0548 361.455 82.9529 360.798 82.7615C356.764 81.586 354.446 77.3625 355.621 73.328L367.352 33.0658H368.74L368.746 33.058L370.373 33.0658H376.464L376.466 33.0951L390.935 33.1648C389.264 40.8483 387.764 45.9827 386.434 48.5682C385.484 50.4143 384.278 52.0629 382.816 53.5139ZM431.972 33.0658C433.333 38.8365 431.226 41.7218 425.649 41.7218C420.072 41.7218 411.707 38.8365 400.554 33.0658H431.972Z" fill="black"/>
<path fill-rule="evenodd" clip-rule="evenodd" d="M303.964 233.955L350.926 192.111C357.762 186.019 366.631 182.706 375.786 182.824L429.26 183.512C436.564 183.606 442.535 189.367 442.89 196.664C443.226 203.57 437.899 209.44 430.994 209.776C430.837 209.783 430.68 209.788 430.523 209.79L385.25 210.285C382.48 210.316 380.259 212.585 380.29 215.355C380.29 215.357 380.29 215.359 380.29 215.361C380.323 218.165 382.566 220.442 385.369 220.519L432.099 221.799C438.467 221.974 443.548 227.168 443.581 233.538C443.615 239.815 438.553 244.931 432.276 244.964C432.256 244.964 432.236 244.964 432.216 244.964H387.671C384.931 244.964 382.71 247.185 382.71 249.925C382.71 249.945 382.711 249.965 382.711 249.984C382.747 252.997 384.668 255.663 387.514 256.652L416.037 266.554C420.973 268.267 423.585 273.657 421.872 278.593C421.796 278.812 421.712 279.029 421.62 279.242C419.336 284.529 413.386 287.19 407.922 285.367L361.553 269.893L336.467 286.636C323.601 295.223 306.211 291.754 297.624 278.888C296.817 277.678 296.105 276.407 295.495 275.087C293.31 270.357 292.628 263.582 293.45 254.76C294.197 246.744 297.954 239.31 303.964 233.955Z" fill="white"/>
<path d="M302.096 283.131L310.843 277.502C307.842 274.633 305.418 271.108 303.371 267.009C300.404 261.069 301.379 249.709 306.241 232.857L304.584 234.333C298.663 239.61 294.962 246.939 294.228 254.841C293.419 263.564 294.093 270.242 296.23 274.869C296.826 276.158 297.52 277.4 298.308 278.582C299.428 280.264 300.701 281.782 302.096 283.131ZM302.881 283.861C311.997 292.01 325.786 293.317 336.428 286.214L338.849 284.599C329.232 286.337 321.409 284.918 315.141 280.891C313.891 280.088 312.725 279.2 311.632 278.229L302.881 283.861ZM306.794 230.974C306.794 230.972 306.795 230.969 306.796 230.966C306.855 230.768 307.021 230.632 307.212 230.601L350.849 191.719C357.78 185.543 366.768 182.185 376.046 182.305L429.546 182.993C437.116 183.091 443.304 189.068 443.673 196.638C444.022 203.83 438.482 209.944 431.298 210.294C431.135 210.302 430.971 210.307 430.807 210.309L385.515 210.805C383.035 210.832 381.046 212.866 381.073 215.349L381.073 215.354C381.103 217.88 383.121 219.93 385.642 219.999L432.391 221.28C439.031 221.462 444.33 226.885 444.365 233.535C444.4 240.099 439.112 245.448 432.556 245.483L432.493 245.483H387.93C385.48 245.483 383.494 247.472 383.494 249.925C383.494 249.951 383.494 249.951 383.494 249.978C383.528 252.772 385.308 255.244 387.944 256.159L416.48 266.066C421.679 267.87 424.432 273.553 422.629 278.757C422.548 278.991 422.458 279.221 422.36 279.448C419.969 284.984 413.746 287.769 408.031 285.862L361.895 270.466L337.004 287.078C323.895 295.827 306.184 292.281 297.444 279.158C296.627 277.931 295.907 276.643 295.288 275.305C293.062 270.485 292.37 263.634 293.195 254.745C293.953 246.581 297.777 239.009 303.894 233.558L306.794 230.974ZM307.704 231.554C302.511 249.044 301.397 260.734 304.299 266.545C307.167 272.287 310.779 276.854 315.701 280.016C322.109 284.133 330.221 285.427 340.386 283.235C340.528 283.204 340.669 283.235 340.781 283.309L361.741 269.32L408.359 284.877C413.564 286.613 419.231 284.077 421.408 279.036C421.496 278.832 421.576 278.626 421.648 278.417C423.264 273.754 420.797 268.664 416.14 267.047L387.604 257.141C384.554 256.082 382.495 253.222 382.457 249.991C382.456 249.958 382.456 249.958 382.456 249.925C382.456 246.898 384.907 244.445 387.93 244.445H432.493L432.55 244.444C438.534 244.413 443.359 239.531 443.327 233.541C443.295 227.451 438.443 222.485 432.362 222.319L385.614 221.038C382.535 220.953 380.073 218.45 380.036 215.367L380.036 215.361C380.002 212.304 382.45 209.799 385.503 209.766L430.796 209.27C430.947 209.269 431.097 209.264 431.248 209.257C437.859 208.935 442.958 203.308 442.636 196.689C442.295 189.667 436.555 184.122 429.532 184.032L376.032 183.343C367.013 183.227 358.277 186.492 351.539 192.495L307.704 231.554Z" fill="black"/>
<path fill-rule="evenodd" clip-rule="evenodd" d="M538.033 195.602L538.04 197.01C538.073 204.19 543.903 209.994 551.084 209.994H560.926C552.794 210.619 547.491 213.274 545.017 217.957C541.121 225.334 543.943 234.472 551.319 238.368C553.493 239.516 555.915 240.117 558.374 240.117H562.656L561.486 240.691C553.256 244.729 549.859 254.674 553.897 262.904C554.141 263.4 554.409 263.884 554.701 264.353C558.633 269.83 566.26 271.082 571.737 267.15C572.103 266.887 572.454 266.605 572.789 266.303L580.423 259.424C584.64 255.626 586.623 249.936 585.683 244.34C585.614 243.932 585.547 243.563 585.482 243.233C585.084 241.214 583.701 238.213 581.332 234.231C582.946 230.999 583.407 227.075 582.715 222.458C582.024 217.842 580.064 213.802 576.836 210.34C578.408 206.31 578.638 201.809 577.528 196.837C577.088 194.868 576.478 193.19 575.7 191.803C574.272 189.259 571.699 187.566 568.798 187.262L549.492 185.235C543.793 184.636 538.688 188.771 538.09 194.47C538.05 194.846 538.031 195.224 538.033 195.602Z" fill="white"/>
<path d="M562.801 239.251L581.189 233.456C582.674 230.364 583.09 226.612 582.428 222.189C581.753 217.689 579.849 213.756 576.708 210.376L576.705 210.513L560.766 210.2C553.037 210.871 548.036 213.432 545.701 217.854C541.941 224.973 544.658 233.796 551.769 237.56C553.867 238.671 556.204 239.251 558.577 239.251H562.801ZM563.074 240.254L561.93 240.816C553.97 244.722 550.681 254.348 554.582 262.316C554.82 262.801 555.082 263.274 555.348 263.704C559.117 268.954 566.423 270.151 571.667 266.377C572.014 266.128 572.347 265.859 572.665 265.573L580.292 258.7C584.384 255.014 586.308 249.489 585.392 244.055C585.326 243.661 585.261 243.306 585.199 242.987C584.827 241.1 583.534 238.263 581.321 234.503L563.074 240.254ZM561.153 209.169L576.703 209.474C578.122 205.629 578.305 201.343 577.247 196.604C576.818 194.684 576.226 193.055 575.476 191.716C574.13 189.316 571.705 187.719 568.971 187.432L549.662 185.405C544.248 184.836 539.399 188.77 538.831 194.19C538.793 194.547 538.776 194.906 538.777 195.265L538.784 196.661C538.816 203.556 544.408 209.128 551.295 209.128H561.152L561.153 209.169ZM544.784 217.368C546.63 213.872 549.972 211.475 554.785 210.167H551.295C543.837 210.167 537.781 204.133 537.746 196.666L537.739 195.27C537.738 194.873 537.758 194.476 537.799 194.081C538.426 188.091 543.786 183.744 549.77 184.372L569.079 186.399C572.148 186.721 574.87 188.514 576.38 191.208C577.184 192.641 577.809 194.364 578.259 196.377C579.364 201.322 579.166 205.826 577.66 209.878C580.829 213.364 582.762 217.42 583.454 222.035C584.142 226.631 583.71 230.576 582.146 233.86C584.456 237.771 585.812 240.737 586.216 242.786C586.281 243.114 586.347 243.48 586.415 243.882C587.39 249.666 585.342 255.548 580.987 259.472L573.359 266.345C573.013 266.657 572.65 266.949 572.273 267.221C566.563 271.329 558.609 270.026 554.486 264.282C554.182 263.793 553.904 263.29 553.651 262.774C549.626 254.555 552.788 244.679 560.694 240.29H558.577C556.035 240.29 553.531 239.668 551.284 238.478C543.666 234.446 540.756 224.995 544.784 217.368ZM551.28 188.17C551.566 188.166 551.802 188.395 551.806 188.682C551.81 188.969 551.581 189.205 551.295 189.209C547.47 189.263 545.773 191.55 546.102 196.341C546.432 201.154 548.135 203.314 551.255 203.096C551.54 203.076 551.788 203.291 551.808 203.578C551.828 203.864 551.613 204.112 551.327 204.132C547.533 204.397 545.431 201.732 545.067 196.412C544.7 191.071 546.805 188.233 551.28 188.17ZM556.238 217.787C556.524 217.763 556.775 217.975 556.799 218.261C556.823 218.546 556.611 218.798 556.326 218.822C552.515 219.142 550.981 221.543 551.643 226.299C552.308 231.077 554.157 233.113 557.254 232.678C557.538 232.638 557.8 232.836 557.84 233.12C557.88 233.404 557.683 233.666 557.399 233.706C553.632 234.236 551.35 231.724 550.615 226.442C549.877 221.139 551.779 218.162 556.238 217.787ZM563.511 248.073C563.791 248.015 564.066 248.195 564.125 248.476C564.184 248.756 564.004 249.031 563.723 249.09C559.98 249.873 558.75 252.442 559.987 257.083C561.229 261.744 563.313 263.539 566.334 262.73C566.611 262.655 566.895 262.82 566.969 263.097C567.044 263.374 566.879 263.659 566.603 263.733C562.929 264.717 560.357 262.502 558.984 257.35C557.606 252.176 559.131 248.989 563.511 248.073Z" fill="black"/>
<path fill-rule="evenodd" clip-rule="evenodd" d="M114.113 341.006L130.907 516.396H139.553L131.318 339.317C131.102 334.67 127.16 331.079 122.513 331.295C122.371 331.301 122.229 331.312 122.087 331.325C117.214 331.801 113.646 336.132 114.113 341.006Z" fill="white"/>
<path d="M113.596 340.729L130.435 516.588H140.096L131.836 338.966C131.607 334.033 127.422 330.22 122.489 330.45C122.338 330.457 122.187 330.468 122.037 330.482C116.879 330.985 113.102 335.57 113.596 340.729ZM131.378 515.55L114.629 340.63C114.19 336.041 117.549 331.962 122.138 331.515C122.271 331.502 122.404 331.492 122.537 331.486C126.898 331.283 130.597 334.654 130.8 339.014L139.01 515.55H131.378Z" fill="black"/>
<path d="M126.668 521.459C126.56 521.724 126.257 521.851 125.992 521.743C125.727 521.634 125.6 521.331 125.708 521.066C132.553 504.331 136.537 492.637 137.658 486.014C137.706 485.732 137.974 485.541 138.256 485.589C138.539 485.637 138.729 485.905 138.681 486.187C137.544 492.908 133.541 504.656 126.668 521.459ZM137.278 462.903C137.369 463.175 137.223 463.469 136.951 463.56C136.679 463.651 136.385 463.505 136.294 463.233C133.248 454.149 127.094 446.399 117.815 439.977C117.579 439.814 117.52 439.49 117.683 439.255C117.846 439.019 118.17 438.96 118.405 439.124C127.861 445.669 134.157 453.597 137.278 462.903ZM129.835 499.689C129.717 499.95 129.41 500.066 129.149 499.948C128.888 499.829 128.772 499.522 128.89 499.261C129.816 497.219 130.435 495.555 130.749 494.278C135.055 476.721 132.385 463.891 124.762 454.772C124.578 454.552 124.607 454.225 124.827 454.041C125.047 453.857 125.374 453.887 125.558 454.106C133.399 463.486 136.139 476.655 131.756 494.525C131.425 495.874 130.785 497.594 129.835 499.689ZM117.606 332.432C117.57 332.148 117.771 331.888 118.055 331.852C118.339 331.815 118.599 332.016 118.636 332.301C123.131 367.542 140.002 386.179 169.321 388.367C169.606 388.388 169.821 388.637 169.799 388.923C169.778 389.208 169.529 389.423 169.243 389.401C139.397 387.174 122.161 368.133 117.606 332.432ZM125.202 331.898C125.175 331.613 125.384 331.359 125.67 331.332C125.955 331.305 126.208 331.515 126.235 331.8C129.182 362.831 143.21 379.01 168.413 380.864C168.699 380.885 168.914 381.134 168.893 381.42C168.872 381.705 168.623 381.92 168.337 381.899C142.59 380.004 128.194 363.402 125.202 331.898Z" fill="black"/>
<path fill-rule="evenodd" clip-rule="evenodd" d="M401.366 56.61C400.029 56.61 398.945 55.3698 398.945 53.8401C398.945 52.3103 400.029 51.0701 401.366 51.0701C402.703 51.0701 403.787 52.3103 403.787 53.8401C403.787 55.3698 402.703 56.61 401.366 56.61ZM422.809 56.61C421.472 56.61 420.388 55.3698 420.388 53.8401C420.388 52.3103 421.472 51.0701 422.809 51.0701C424.146 51.0701 425.23 52.3103 425.23 53.8401C425.23 55.3698 424.146 56.61 422.809 56.61ZM396.574 51.4058C396.389 51.6247 396.062 51.6518 395.843 51.4665C395.624 51.2811 395.597 50.9534 395.782 50.7345C395.865 50.637 396.013 50.4746 396.221 50.2687C396.563 49.9284 396.949 49.5884 397.371 49.2702C398.602 48.3431 399.889 47.7809 401.187 47.7809C403.066 47.7809 404.094 48.2304 405.132 49.3707C405.296 49.5508 405.462 49.7476 405.68 50.0168C405.744 50.0959 406.141 50.5898 406.264 50.7421C406.445 50.9645 406.412 51.2916 406.19 51.4728C405.968 51.654 405.641 51.6206 405.46 51.3982C405.333 51.2422 404.936 50.7472 404.875 50.6711C404.668 50.4161 404.513 50.2329 404.365 50.0703C403.525 49.1472 402.775 48.8196 401.187 48.8196C400.153 48.8196 399.062 49.2961 397.995 50.1002C397.613 50.3879 397.262 50.6971 396.952 51.006C396.767 51.1896 396.638 51.3301 396.574 51.4058ZM418.721 51.3912C418.544 51.6167 418.218 51.6557 417.992 51.4784C417.767 51.3011 417.728 50.9746 417.905 50.7491C417.982 50.6514 418.12 50.4888 418.313 50.2825C418.632 49.9415 418.991 49.6008 419.384 49.2817C420.534 48.3482 421.74 47.7809 422.964 47.7809C424.727 47.7809 425.697 48.2374 426.667 49.385C426.82 49.5653 426.974 49.7622 427.177 50.0315C427.236 50.1107 427.604 50.6045 427.719 50.7568C427.892 50.9856 427.847 51.3113 427.618 51.4843C427.39 51.6574 427.064 51.6122 426.892 51.3835C426.774 51.2275 426.405 50.7325 426.348 50.6564C426.156 50.4015 426.013 50.2184 425.875 50.056C425.101 49.1401 424.42 48.8196 422.964 48.8196C422.022 48.8196 421.02 49.291 420.037 50.0887C419.684 50.3755 419.359 50.684 419.071 50.9922C418.899 51.1755 418.78 51.3158 418.721 51.3912ZM415.08 60.938H419.163L414.596 49.181C414.492 48.9136 414.625 48.6126 414.892 48.5087C415.159 48.4047 415.459 48.5371 415.563 48.8045L420.405 61.2691C420.537 61.6095 420.287 61.9767 419.922 61.9767H415.08C414.793 61.9767 414.561 61.7441 414.561 61.4573C414.561 61.1705 414.793 60.938 415.08 60.938ZM412.558 68.1474C412.305 68.2829 411.991 68.1877 411.856 67.9349C411.72 67.682 411.815 67.3673 412.068 67.2318C413.947 66.224 415.757 66.224 417.426 67.2467C417.67 67.3964 417.747 67.7162 417.597 67.9608C417.448 68.2054 417.128 68.2823 416.884 68.1325C415.54 67.3087 414.122 67.3087 412.558 68.1474Z" fill="black"/>
<path fill-rule="evenodd" clip-rule="evenodd" d="M30.9541 372.35L58.6226 457.871L195.236 439.521V339.458L60.2763 366.48L58.6226 378.237L49.7718 368.583L30.9541 372.35Z" fill="white"/>
<path d="M50.1541 367.915C50.0315 367.782 49.8478 367.722 49.6699 367.757L30.8523 371.525C30.5481 371.586 30.365 371.898 30.4605 372.193L58.129 457.714C58.2062 457.953 58.4431 458.102 58.6917 458.069L195.305 439.718C195.562 439.683 195.755 439.464 195.755 439.204V339.141C195.755 338.813 195.455 338.568 195.134 338.632L60.1744 365.654C59.9584 365.697 59.7932 365.872 59.7626 366.09L58.262 376.759L50.1541 367.915ZM49.5869 368.832L58.2402 378.27C58.5365 378.593 59.0753 378.426 59.1363 377.992L60.7388 366.599L194.717 339.774V438.75L58.9829 456.983L31.627 372.428L49.5869 368.832Z" fill="black"/>
<path fill-rule="evenodd" clip-rule="evenodd" d="M0.518799 610.411H46.5177C64.6362 563.203 81.2713 533.729 96.4231 521.989C97.3181 521.296 91.981 513.607 80.4116 498.922C87.9108 504.859 93.0987 508.667 95.9751 510.348C97.3296 511.14 97.4449 499.829 96.321 476.417L108.706 513.947C113.42 511.577 117.016 509.916 119.493 508.963C154.31 495.575 182.9 529.391 205.266 610.411H672.863" fill="white"/>
<path d="M95.7133 510.631C96.2069 510.919 96.652 510.652 96.8949 510.132C97.0526 509.795 97.174 509.284 97.2724 508.579C97.4599 507.237 97.5672 505.147 97.5962 502.299C97.6476 497.259 97.4537 489.83 97.0147 480.009L108.213 513.944C108.312 514.245 108.656 514.388 108.939 514.245C113.639 511.882 117.222 510.227 119.68 509.282C154.086 496.052 182.472 529.626 204.766 610.384C204.828 610.609 205.032 610.765 205.266 610.765H672.863C673.15 610.765 673.382 610.532 673.382 610.246C673.382 609.959 673.15 609.727 672.863 609.727H205.661C183.238 528.72 154.478 494.789 119.307 508.314C116.906 509.237 113.476 510.815 109.01 513.049L96.8136 476.089C96.6244 475.515 95.7738 475.673 95.8028 476.276C96.3643 487.973 96.6162 496.645 96.5587 502.288C96.5301 505.095 96.4248 507.148 96.2448 508.436C96.171 508.964 96.0853 509.354 95.9965 509.593C93.1018 507.86 88.0082 504.109 80.7336 498.35C80.2512 497.968 79.6233 498.595 80.0041 499.078C85.7828 506.413 90.0039 511.999 92.6653 515.833C93.9888 517.739 94.9238 519.209 95.4674 520.235C95.7286 520.728 95.8951 521.111 95.966 521.372C95.9798 521.423 95.9891 521.466 95.9945 521.5C80.8103 533.345 64.2187 562.743 46.1612 609.727H0.518784C0.232268 609.727 0 609.959 0 610.246C0 610.532 0.232268 610.765 0.518784 610.765H46.5177C46.7324 610.765 46.925 610.632 47.002 610.432C65.088 563.309 81.6874 533.898 96.7409 522.234C97.5914 521.575 96.5498 519.609 93.5177 515.241C91.2683 512.001 87.919 507.526 83.4687 501.816C89.1887 506.265 93.2664 509.201 95.7133 510.631Z" fill="black"/>
<path d="M406.711 0H387.062C378.235 0 371.069 7.11997 370.981 15.9364L359.316 32.7698C359.078 33.1142 359.324 33.5852 359.743 33.5852H438.598C439.056 33.5852 439.289 33.035 438.971 32.7052L422.1 15.1965C421.987 6.78441 415.14 0 406.711 0ZM371.925 16.3961C371.985 16.3092 372.018 16.2059 372.018 16.1001C372.018 7.78193 378.753 1.03872 387.062 1.03872H406.711C414.638 1.03872 421.064 7.4719 421.064 15.4076C421.064 15.5421 421.116 15.6714 421.209 15.7682L437.377 32.5464H360.734L371.925 16.3961Z" fill="black"/>
<path fill-rule="evenodd" clip-rule="evenodd" d="M421.37 15.7539L371.277 16.4464L367.818 21.64H426.959L421.37 15.7539Z" fill="black"/>
<path d="M421.708 14.8882L371.615 15.5808C371.444 15.5831 371.286 15.6696 371.191 15.812L367.732 21.0056C367.502 21.3507 367.75 21.813 368.164 21.813H427.305C427.761 21.813 427.995 21.2666 427.681 20.9358L422.092 15.0497C421.992 14.9448 421.853 14.8863 421.708 14.8882ZM426.096 20.7743H369.133L371.903 16.6156L421.496 15.93L426.096 20.7743Z" fill="black"/>
<path fill-rule="evenodd" clip-rule="evenodd" d="M281.008 596.742L275.129 625.134H297.955H386.494C381.388 614.348 375.394 606.846 368.51 602.629C361.626 598.411 349.06 596.449 330.811 596.742L340.15 548.269L284.121 548.615L283.429 584.97L281.008 596.742Z" fill="white"/>
<path fill-rule="evenodd" clip-rule="evenodd" d="M431.456 592.588V625.48L445.29 625.134H533.829C528.723 614.347 522.728 606.846 515.845 602.628C508.961 598.411 496.395 596.449 478.146 596.742L486.793 549.046L426.268 548.615L430.764 584.97L431.456 592.588Z" fill="white"/>
<path fill-rule="evenodd" clip-rule="evenodd" d="M283.429 585.317C288.725 586.174 292.875 589.521 295.88 595.358C298.885 601.194 300.499 609.042 300.722 618.902L276.512 618.556" fill="black"/>
<path fill-rule="evenodd" clip-rule="evenodd" d="M431.456 585.317C440.901 587.559 447.127 591.599 450.132 597.435C453.137 603.271 454.52 610.427 454.282 618.902L431.456 618.556V585.317Z" fill="black"/>
<path d="M300.634 548.341L304.485 521.781H296.226V520.744H304.635L306.694 506.547H299.339V505.509H339.458V506.547H331.416L328.785 520.744H336.345V521.781H328.593L323.699 548.198L340.779 548.093L333.128 587.806L335.77 580.561C335.881 580.256 336.02 579.963 336.183 579.683C337.683 577.127 340.971 576.271 343.527 577.771C343.958 578.024 344.345 578.343 344.676 578.716C346.411 580.676 346.23 583.67 344.27 585.405L331.974 596.295C334.289 595.719 339.971 594.258 348.319 592.086C348.597 592.013 348.88 592.18 348.952 592.457C349.024 592.734 348.858 593.018 348.581 593.09C342.499 594.673 338.114 595.807 335.219 596.543C351.188 596.616 362.367 598.603 368.781 602.532C375.761 606.809 381.818 614.388 386.963 625.258L387.314 625.999H274.491L280.5 596.984L282.911 585.259L283.612 548.446L300.634 548.341ZM301.683 548.334L311.716 548.272L315.77 521.781H305.533L301.683 548.334ZM312.767 548.266L322.642 548.205L327.538 521.781H316.82L312.767 548.266ZM331.251 597.601C331.207 597.61 331.161 597.613 331.114 597.609L319.413 597.954C319.127 597.962 318.888 597.737 318.88 597.45C318.871 597.164 319.097 596.925 319.383 596.916L329.833 596.609L317.182 585.405C315.223 583.67 315.041 580.676 316.776 578.716C317.107 578.343 317.495 578.024 317.925 577.771C320.481 576.271 323.769 577.127 325.269 579.683C325.433 579.963 325.571 580.256 325.682 580.561L330.726 594.392L330.888 593.948L339.521 549.138L284.63 549.477L283.955 584.928C294.725 588.129 300.899 599.212 301.233 618.037H381.909C377.824 611.369 373.266 606.497 368.239 603.417C361.515 599.298 349.175 597.347 331.251 597.601ZM331.891 594.226L331.716 595.138L343.583 584.628C345.113 583.273 345.255 580.934 343.899 579.404C343.641 579.113 343.338 578.863 343.002 578.666C340.94 577.456 338.288 578.147 337.078 580.208C336.946 580.434 336.834 580.671 336.745 580.916L331.891 594.226ZM382.532 619.074H276.985L275.766 624.962H385.671C384.659 622.87 383.613 620.908 382.532 619.074ZM277.2 618.037H300.195C299.867 599.726 293.966 589.083 283.824 585.972L281.516 597.194L277.2 618.037ZM324.707 580.916C324.618 580.671 324.506 580.434 324.374 580.208C323.164 578.147 320.512 577.456 318.45 578.666C318.114 578.863 317.811 579.113 317.553 579.404C316.198 580.934 316.34 583.273 317.87 584.628L329.968 595.343L324.707 580.916ZM330.361 506.547H319.152L316.979 520.744H327.73L330.361 506.547ZM318.102 506.547H307.742L305.684 520.744H315.929L318.102 506.547Z" fill="black"/>
<path fill-rule="evenodd" clip-rule="evenodd" d="M278.933 178.832H267.52L279.971 159.097" fill="black"/>
<path d="M438.425 548.166L434.599 521.781H427.997V520.744H434.449L432.39 506.547H425.922V505.509H467.771V506.547H458.833L460.263 520.744H468.116V521.781H460.367L463.038 548.307L487.408 548.446L479.519 594.188L484.488 580.561C484.599 580.256 484.738 579.963 484.902 579.683C486.402 577.127 489.689 576.271 492.245 577.771C492.676 578.024 493.064 578.343 493.394 578.716C495.129 580.676 494.948 583.67 492.989 585.405L481.243 595.807C484.169 595.063 489.087 593.795 495.654 592.086C495.931 592.013 496.215 592.18 496.287 592.457C496.359 592.734 496.193 593.018 495.916 593.09C489.838 594.672 485.453 595.806 482.559 596.542C498.709 596.588 510.002 598.575 516.461 602.532C523.441 606.809 529.498 614.388 534.644 625.258L534.994 625.999H430.941L430.937 625.485L430.595 585.384L425.676 548.093L438.425 548.166ZM439.474 548.172L449.892 548.232L447.548 521.781H435.647L439.474 548.172ZM450.934 548.238L461.995 548.301L459.324 521.781H448.59L450.934 548.238ZM431.562 584.809C446.587 587.836 454.343 598.965 454.791 618.037H529.59C525.505 611.369 520.947 606.497 515.919 603.417C509.22 599.313 496.945 597.361 479.126 597.598C479.057 597.614 478.987 597.614 478.92 597.601C478.797 597.603 478.674 597.605 478.55 597.607C478.517 597.611 478.483 597.612 478.449 597.609L466.748 597.954C466.462 597.962 466.223 597.737 466.214 597.45C466.206 597.164 466.431 596.925 466.718 596.916L477.168 596.609L464.517 585.405C462.558 583.67 462.376 580.676 464.111 578.716C464.442 578.343 464.829 578.024 465.26 577.771C467.816 576.271 471.104 577.127 472.604 579.683C472.768 579.963 472.906 580.256 473.017 580.561L478.312 595.081L486.177 549.477L426.86 549.137L431.562 584.809ZM431.633 585.883L431.91 618.037H453.753C453.313 599.551 445.953 588.884 431.633 585.883ZM530.213 619.074H431.919L431.97 624.962H533.351C532.339 622.87 531.293 620.908 530.213 619.074ZM472.042 580.916C471.953 580.671 471.841 580.434 471.709 580.208C470.499 578.147 467.847 577.456 465.785 578.666C465.449 578.863 465.146 579.113 464.888 579.404C463.533 580.934 463.674 583.273 465.205 584.628L477.303 595.343L472.042 580.916ZM485.463 580.916L480.202 595.343L492.301 584.628C493.831 583.273 493.973 580.934 492.618 579.404C492.359 579.113 492.056 578.863 491.72 578.666C489.659 577.456 487.006 578.147 485.797 580.208C485.664 580.434 485.553 580.671 485.463 580.916ZM457.79 506.547H447.24L448.498 520.744H459.22L457.79 506.547ZM446.198 506.547H433.438L435.497 520.744H447.456L446.198 506.547Z" fill="black"/>
<path d="M100.926 409.387L101.947 415.832L96.0169 416.771L96.7826 421.606L89.1581 422.813L88.3925 417.979L67.4675 421.293L66.4466 414.848L84.4567 393.13L92.0812 391.922L94.996 410.326L100.926 409.387ZM74.6641 413.546L87.3716 411.533L85.6656 400.763L74.6641 413.546ZM122.138 418.024C110.362 419.889 103.911 415.347 102.346 405.467C100.788 395.629 105.526 389.358 117.302 387.493C129.035 385.634 135.528 390.17 137.08 399.966C138.638 409.804 133.871 416.166 122.138 418.024ZM121.123 411.621C127.816 410.561 130.335 406.728 129.455 401.173C128.582 395.661 125.009 392.836 118.316 393.896C111.623 394.956 109.091 398.704 109.971 404.259C110.857 409.857 114.431 412.681 121.123 411.621ZM174.629 397.713L175.65 404.159L169.72 405.098L170.486 409.932L162.861 411.14L162.096 406.306L141.171 409.62L140.15 403.174L158.16 381.456L165.784 380.249L168.699 398.652L174.629 397.713ZM148.367 401.873L161.075 399.86L159.369 389.089L148.367 401.873Z" fill="black"/>
<path d="M101.689 408.453L102.872 415.923L96.942 416.862L97.7077 421.696L89.0584 423.066L88.2927 418.232L67.3678 421.546L66.2291 414.357L84.5138 392.307L92.8439 390.988L95.7588 409.392L101.689 408.453ZM94.8963 410.579L91.9815 392.175L85.0627 393.271L67.3273 414.658L68.2303 420.359L89.1552 417.045L89.9209 421.879L96.5206 420.834L95.7549 416L101.685 415.06L100.826 409.64L94.8963 410.579ZM73.6798 413.939L86.3344 399.235L88.2967 411.624L73.6798 413.939ZM87.1096 410.762L85.6599 401.609L76.3115 412.472L87.1096 410.762ZM122.55 418.196C110.712 420.071 103.807 415.572 102.165 405.208C100.531 394.89 105.709 388.516 117.552 386.64C129.351 384.771 136.296 389.268 137.924 399.544C139.559 409.868 134.345 416.328 122.55 418.196ZM122.388 417.172C133.638 415.39 138.441 409.439 136.899 399.706C135.365 390.022 128.97 385.882 117.715 387.665C106.414 389.454 101.65 395.32 103.19 405.045C104.738 414.819 111.093 418.96 122.388 417.172ZM121.536 411.793C114.773 412.864 110.753 410.084 109.79 404C108.834 397.963 111.8 394.115 118.566 393.043C125.317 391.974 129.347 394.742 130.299 400.752C131.259 406.809 128.283 410.725 121.536 411.793ZM121.374 410.768C127.565 409.788 130.143 406.395 129.274 400.914C128.414 395.482 124.925 393.087 118.729 394.068C112.516 395.052 109.95 398.38 110.815 403.838C111.687 409.345 115.166 411.752 121.374 410.768ZM175.392 396.779L176.575 404.25L170.645 405.189L171.411 410.023L162.762 411.393L161.996 406.559L141.071 409.873L139.932 402.683L158.217 380.634L166.547 379.315L169.462 397.718L175.392 396.779ZM168.6 398.905L165.685 380.502L158.766 381.598L141.03 402.984L141.934 408.686L162.858 405.372L163.624 410.206L170.224 409.16L169.458 404.326L175.388 403.387L174.53 397.966L168.6 398.905ZM147.383 402.266L160.038 387.561L162 399.951L147.383 402.266ZM160.813 399.088L159.363 389.936L150.015 400.799L160.813 399.088Z" fill="black"/>
<path d="M279.836 158.54C279.898 158.304 279.952 158.084 279.996 157.882L280.563 145.908C281.503 126.059 297.852 110.45 317.701 110.45H356.751V111.489H317.701C298.406 111.489 282.514 126.662 281.6 145.957L281.435 149.439C283.269 142.398 286.805 136.099 292.049 130.69C299.954 122.536 309.743 126.6 321.203 142.52C321.37 142.753 321.317 143.077 321.085 143.245C320.852 143.413 320.528 143.36 320.361 143.127C309.224 127.655 300.107 123.87 292.794 131.413C285.911 138.512 282.048 147.169 281.179 157.065C281.155 157.34 281.105 157.657 281.029 158.017L279.451 191.322L278.415 191.272L278.996 179.005H267.866C267.457 179.005 267.209 178.555 267.427 178.209L279.836 158.54ZM279.045 177.967L279.876 160.421L268.807 177.967H279.045Z" fill="black"/>
<path d="M432.95 205.026C432.663 205.015 432.44 204.774 432.451 204.487C432.462 204.201 432.703 203.977 432.989 203.988C436.811 204.134 438.625 201.939 438.548 197.137C438.471 192.314 436.883 190.068 433.756 190.122C433.469 190.127 433.233 189.899 433.228 189.612C433.223 189.325 433.451 189.089 433.738 189.084C437.541 189.017 439.5 191.788 439.586 197.12C439.672 202.474 437.421 205.197 432.95 205.026ZM431.843 241.559C431.557 241.533 431.347 241.281 431.373 240.995C431.399 240.71 431.651 240.499 431.937 240.525C435.746 240.871 437.673 238.773 437.847 233.974C438.022 229.153 436.554 226.827 433.428 226.718C433.142 226.708 432.918 226.468 432.928 226.181C432.938 225.894 433.178 225.67 433.464 225.68C437.266 225.813 439.077 228.683 438.884 234.012C438.689 239.362 436.299 241.964 431.843 241.559ZM409.165 281.985C408.903 281.87 408.783 281.564 408.899 281.301C409.014 281.038 409.32 280.918 409.582 281.033C413.108 282.579 415.458 281.565 416.881 277.876C418.313 274.162 417.562 271.871 414.619 270.741C414.351 270.638 414.218 270.338 414.32 270.07C414.423 269.802 414.723 269.668 414.991 269.771C418.518 271.125 419.473 274.038 417.849 278.25C416.215 282.486 413.238 283.77 409.165 281.985ZM371.813 143.728L372.815 143.996C370.923 151.101 366.974 155.294 361.003 156.49L360.799 155.471C366.357 154.359 370.016 150.473 371.813 143.728Z" fill="black"/>
<path d="M313.709 157.499L315.093 162.693C315.166 162.97 315.451 163.135 315.727 163.061C316.004 162.987 316.169 162.702 316.095 162.425L314.712 157.232C314.638 156.955 314.354 156.79 314.077 156.864C313.8 156.938 313.635 157.222 313.709 157.499Z" fill="black"/>
<path d="M314.094 157.872L318.59 158.91C318.869 158.975 319.148 158.801 319.212 158.521C319.276 158.242 319.102 157.963 318.823 157.898L314.327 156.859C314.048 156.795 313.769 156.969 313.705 157.249C313.64 157.528 313.815 157.807 314.094 157.872Z" fill="black"/>
<path d="M509.324 161.159C505.826 156.936 499.745 156.49 494.732 159.792C492.779 161.078 491.355 162.91 490.686 165.003C488.999 170.279 495.625 183.759 510.573 205.785C510.734 206.022 511.057 206.084 511.294 205.922C511.531 205.761 511.593 205.438 511.432 205.201C496.727 183.534 490.137 170.127 491.674 165.32C492.27 163.457 493.544 161.817 495.302 160.659C499.899 157.632 505.388 158.035 508.525 161.822C508.708 162.043 509.035 162.074 509.256 161.891C509.476 161.708 509.507 161.38 509.324 161.159Z" fill="black"/>
</svg>
